<?xml version="1.0" standalone="no"?>
<!DOCTYPE svg PUBLIC "-//W3C//DTD SVG 20010904//EN"
 "http://www.w3.org/TR/2001/REC-SVG-20010904/DTD/svg10.dtd">
<svg version="1.0" xmlns="http://www.w3.org/2000/svg"
 width="256.000000pt" height="256.000000pt" viewBox="0 0 256.000000 256.000000"
 preserveAspectRatio="xMidYMid meet">
<metadata>
Created by potrace 1.11, written by Peter Selinger 2001-2013
</metadata>
<g transform="translate(0.000000,256.000000) scale(0.100000,-0.100000)"
fill="#000000" stroke="none">
<path d="M1077 2554 c-1 -1 -31 -4 -67 -7 -299 -26 -562 -264 -626 -567 -9
-43 -14 -134 -14 -266 l0 -200 -180 -468 c-99 -257 -180 -478 -180 -489 0 -81
175 -231 383 -331 177 -85 413 -153 622 -179 185 -24 470 -16 627 17 202 43
349 91 493 160 214 102 367 227 390 318 5 19 -38 142 -173 494 l-180 469 -5
225 c-4 247 -12 290 -71 415 -33 70 -102 165 -160 218 -91 85 -232 154 -357
177 -48 9 -492 21 -502 14z m6 -793 c32 -11 82 -34 112 -51 29 -16 62 -30 73
-30 11 0 53 18 94 39 90 48 142 63 232 66 166 5 294 -59 385 -194 52 -78 55
-84 247 -576 116 -298 169 -446 164 -459 -9 -26 -44 -38 -63 -23 -9 7 -91 206
-183 442 -91 237 -181 459 -198 495 -46 96 -122 172 -198 201 -118 44 -256 27
-364 -44 -42 -28 -58 -32 -114 -32 -56 0 -72 4 -116 32 -67 43 -125 63 -196
67 -173 11 -298 -70 -377 -245 -16 -35 -102 -253 -192 -484 -89 -231 -167
-423 -173 -427 -20 -14 -55 -8 -64 10 -13 24 -11 30 51 187 30 77 105 271 167
430 62 160 128 321 148 359 43 82 118 167 181 204 103 60 266 75 384 33z m664
-236 c69 -34 118 -91 139 -160 19 -66 13 -114 -17 -141 -19 -17 -40 -19 -249
-19 -183 0 -230 3 -244 14 -15 13 -17 30 -14 116 3 88 6 106 27 137 31 45 52
58 125 78 73 20 158 11 233 -25z m-664 6 c67 -32 97 -96 97 -205 0 -45 -4 -86
-8 -93 -17 -26 -67 -32 -272 -30 l-212 2 -25 29 c-22 26 -25 36 -20 82 16 153
141 248 318 241 53 -3 89 -10 122 -26z m258 -444 c48 -32 62 -68 63 -161 l1
-81 -135 0 -135 0 -1 75 c-1 43 5 90 13 109 30 76 125 105 194 58z m-117 -517
l0 -175 -67 -3 -67 -3 0 181 0 181 67 -3 67 -3 0 -175z m226 0 l0 -180 -68 0
-69 0 0 173 c0 94 2 175 4 180 2 4 33 7 69 7 l64 0 0 -180z m-451 -45 l0 -135
-44 0 -45 0 0 92 0 92 42 43 c23 24 43 43 44 43 1 0 2 -61 3 -135z m631 -44
l0 -91 -45 0 -45 0 0 135 0 134 45 -43 45 -44 0 -91z m-869 -32 c71 -37 19
-147 -56 -119 -25 9 -45 38 -45 63 0 23 40 67 61 67 11 0 29 -5 40 -11z m1101
-21 c11 -12 16 -30 13 -46 -13 -76 -113 -76 -131 0 -5 21 0 33 21 53 30 31 68
28 97 -7z"/>
</g>
</svg>
